<svg xmlns="http://www.w3.org/2000/svg" viewBox="0 0 512 512" role="img" aria-label="Riichi calculator">
  <rect width="512" height="512" rx="104" fill="#1b5e20"/>
  <g transform="translate(128,128) scale(16)" fill="#ffffff">
    <path d="M12 1a1 1 0 0 1 1 1v12a1 1 0 0 1-1 1H4a1 1 0 0 1-1-1V2a1 1 0 0 1 1-1zM4 0a2 2 0 0 0-2 2v12a2 2 0 0 0 2 2h8a2 2 0 0 0 2-2V2a2 2 0 0 0-2-2z"/>
    <path d="M4 2.5a.5.5 0 0 1 .5-.5h7a.5.5 0 0 1 .5.5v2a.5.5 0 0 1-.5.5h-7a.5.5 0 0 1-.5-.5zm0 4a.5.5 0 0 1 .5-.5h.5a.5.5 0 0 1 .5.5v.5a.5.5 0 0 1-.5.5h-.5a.5.5 0 0 1-.5-.5zM4.5 8a.5.5 0 0 0-.5.5v.5a.5.5 0 0 0 .5.5h.5a.5.5 0 0 0 .5-.5v-.5a.5.5 0 0 0-.5-.5zM4 10.5a.5.5 0 0 1 .5-.5h.5a.5.5 0 0 1 .5.5v.5a.5.5 0 0 1-.5.5h-.5a.5.5 0 0 1-.5-.5zM7.5 6a.5.5 0 0 0-.5.5v.5a.5.5 0 0 0 .5.5h.5a.5.5 0 0 0 .5-.5v-.5a.5.5 0 0 0-.5-.5zM7 8.5a.5.5 0 0 1 .5-.5h.5a.5.5 0 0 1 .5.5v.5a.5.5 0 0 1-.5.5h-.5a.5.5 0 0 1-.5-.5zM7.5 10a.5.5 0 0 0-.5.5v.5a.5.5 0 0 0 .5.5h.5a.5.5 0 0 0 .5-.5v-.5a.5.5 0 0 0-.5-.5zM10 6.5a.5.5 0 0 1 .5-.5h.5a.5.5 0 0 1 .5.5v.5a.5.5 0 0 1-.5.5h-.5a.5.5 0 0 1-.5-.5zm.5 1.5a.5.5 0 0 0-.5.5v2.5a.5.5 0 0 0 .5.5h.5a.5.5 0 0 0 .5-.5v-2.5a.5.5 0 0 0-.5-.5z"/>
  </g>
</svg>
